Patient4_TMGait_0pt7_01_right_50_EMG.mot
version=1
nRows=30
nColumns=33
inDegrees=no
endheader
time	1LAddLong	2LGlutMax	3LGlutMed	4LIliopsoas	5LSemiMemb	6LBicFemLong	7LRecFem	8LVastMed	9LVastLat	10LGasMed	11LTibAnt	12lTibPost	13LPeroneusLong	14LSol	15LExtDigLong	16LFlexDigLong	17RAddLong	18RGlutMax	19RGlutMed	20RIliopsoas	21RSemiMemb	22RBicFemLong	23RRecFem	24RVastMed	25RVastLat	26RGasMed	27RTibAnt	28RTibPost	29RPeroneusLong	30RSol	31RExtDigLong	32RFlexDigLong
57.952	0.004272	-0.25406	-0.17914	0.002747	0.010071	0.040741	-0.013885	-0.00351	-0.026245	0.007935	-0.22339	0.006256	-0.081635	-0.091858	0.036926	0.031586	-0.026245	-0.51468	-0.45395	-0.061951	0.1181	0.52978	-0.47821	-0.11032	-0.67963	0.035706	0.41412	-0.25116	-0.051422	0.33508	0.000153	-0.008392
57.953	0.000153	-0.27252	-0.17242	-0.023193	0.016022	0.038147	-0.023651	0.013428	-0.028076	-0.005951	0.049896	0.001678	-0.081787	-0.098572	0.090942	0.038147	-0.029602	-0.46799	-0.65994	-0.060272	-0.039978	0.51865	-0.47028	-0.058136	-0.55557	-0.045929	0.24811	-0.041809	-0.47028	-0.36057	0.001526	-0.012207
57.954	0.010529	-0.31326	-0.12528	-0.013885	0.02243	0.031281	-0.001984	0.020294	-0.042877	-0.00946	0.16266	-0.000153	-0.071259	-0.053864	-0.1561	0.044708	-0.0177	-0.50095	-0.77606	-0.014343	-0.094299	0.31281	-0.2861	0.021362	-0.34759	0.02533	-0.15961	-0.018158	-0.64011	-1.0666	-0.000458	-0.014496
57.955	0.008392	-0.2858	-0.07782	-0.016022	0.025024	0.031738	0.048676	0.022736	-0.037994	0.045319	0.19577	0.015564	-0.085602	-0.061951	0.44006	0.031433	0.041962	-0.61783	-0.83481	0.090942	-0.37659	0.15366	-0.072174	-0.013885	-0.35828	-0.048981	-0.23285	-0.075378	-0.79178	-1.1156	0.000305	-0.01709
57.956	0.007019	-0.26504	-0.040283	0.01297	0.026245	0.012665	0.10727	0.02655	-0.037537	0.046844	-0.071259	0.005341	-0.10971	-0.044403	0.38254	0.035095	0.094757	-0.63507	-0.84808	0.19089	-0.51666	0.1767	0.050201	-0.037689	-0.28961	-0.08728	-0.3923	-0.003204	-0.33752	-1.3597	0.000916	-0.032196
57.957	0.006714	-0.27634	-0.019684	0.00351	0.008698	0.010223	0.1564	0.022736	-0.020599	-0.021515	0.45013	0.005646	-0.033722	0.13489	0.058899	0.04837	0.077972	-0.62729	-0.31372	0.14603	-0.63446	0.076294	0.14603	0.023956	-0.21973	-0.06958	-0.74951	-0.14603	0.1445	-1.2598	-0.000153	-0.029297
57.958	0.002747	-0.31677	0.009766	0.00885	0.007477	0.016632	0.18646	0.021973	-0.010223	-0.081482	0.59067	0.012665	0.030823	0.16846	1.3962	0.04776	0.045319	-0.66849	0.038757	0.096893	-0.59998	-0.072327	0.2272	0.046234	-0.15228	-0.082397	-0.40832	-0.29373	0.41687	-0.54535	0.000763	-0.028076
57.959	-0.002747	-0.32669	0.013733	-0.010071	0.018921	0.019684	0.17471	0.029755	-0.000458	-0.058441	0.29724	0.008545	-0.072632	0.10452	-0.12405	0.048523	0.028534	-0.86807	0.11215	0.072174	0.016174	-0.26642	0.37262	-0.03952	-0.17777	-0.092163	-0.44708	0.023499	-0.17471	0.80292	0.001984	-0.028839
57.96	-0.006561	-0.31418	0.016937	-0.001678	0.021667	-0.013733	0.22201	-0.002747	-0.000916	0.013733	-0.052948	0.000458	-0.14481	0.078888	-0.56473	0.032501	-0.050507	-0.80582	0.76187	-0.016785	0.54214	-0.43732	0.41641	-0.067139	-0.17425	-0.059509	-0.24872	0.070343	-0.16464	1.4748	-0.003204	-0.019226
57.961	-0.004425	-0.2684	0.10132	0.013733	0.008392	-0.016327	0.28137	0.012817	0.010986	-0.001984	-0.26352	-0.001068	-0.055695	-0.044861	-1.2408	0.007629	-0.14679	-0.52033	0.75287	-0.033417	0.7074	-0.42221	0.40024	0.14572	-0.13794	0.018463	-0.63049	-0.32516	-0.40115	0.76721	-0.00061	-0.011902
57.962	-0.006866	-0.24704	0.10452	-0.001221	0.014801	-0.011597	0.27054	0.016785	0.020905	-0.053101	-0.38071	-0.024872	0.1265	-0.08667	-0.75668	0.00946	-0.090637	-0.34546	0.70801	-0.001678	0.42145	-0.32852	0.54627	0.18555	-0.13001	0.02243	-1.0013	-0.29312	-0.50858	-0.012665	0.001984	-0.021515
57.963	-0.009918	-0.21668	0.11658	0.004883	0.010986	-0.0177	0.28061	-0.008545	-0.000305	-0.037231	-0.49545	-0.01297	0.13214	-0.12024	-0.37979	0.009155	-0.089111	-0.37674	0.38864	0.047913	0.35355	-0.38544	0.62363	0.12497	-0.13016	0.10315	-1.192	-0.24872	-0.78934	-0.41412	0.000305	-0.031281
57.964	-0.010834	-0.18402	0.097198	0.021515	0.018616	-0.005188	0.28305	-0.012665	0.003967	0.04715	-0.37933	-0.023651	-0.036926	-0.1062	-0.60638	0.016937	-0.063782	-0.5571	0.54642	-0.054626	0.21881	-0.54749	0.74783	0.015106	-0.15854	0.025177	-1.1307	-0.49347	-0.18051	-0.19531	0.001068	-0.03952
57.965	-0.007629	-0.12711	0.090179	0.040894	0.010681	-0.01358	0.31067	0.024414	0.005951	0.075073	-0.10315	-0.023041	-0.1503	0.066376	-0.21408	0.019226	-0.06012	-0.71411	-0.65689	0.007019	0.034027	-0.61859	0.71274	0.051575	-0.13962	-0.033875	-0.28656	0.6691	0.38467	0.58701	0	-0.033875
57.966	0.002136	-0.03891	0.079956	0.019073	0.020599	-0.005798	0.30655	0.027313	0.003967	0.080261	-0.070648	-0.019836	-0.13397	0.088348	0.046082	0.025024	-0.053558	-0.65399	-0.96939	-0.015259	-0.12573	-0.5545	0.69519	0.070343	-0.056915	-0.045166	0.71228	0.58105	1.0017	1.2502	0.002747	-0.014648
57.967	0.012665	-0.010834	0.089569	-0.03006	0.018463	-0.009918	0.29617	0.035553	-0.003204	0.053558	-0.11215	-0.01236	-0.072784	0.006866	0.25253	0.038757	-0.078735	-0.72022	-1.075	0.014648	0.050507	-0.3923	0.70282	0.18066	-0.004578	0.022125	1.5373	0.062408	1.093	0.38773	-0.00473	-0.015717
57.968	0.015717	0.020294	0.12604	-0.048065	0.014343	-0.010376	0.25925	0.026855	-0.001831	0.05188	-0.12466	-0.007629	-0.082397	0.005341	0.47211	0.037994	-0.053101	-0.90729	-1.5965	0.04776	0.03891	-0.35873	0.62973	0.16129	-0.031891	-0.045166	0.8873	-0.076294	1.0088	-1.3707	0.000153	-0.016174
57.969	0.016479	0.041046	0.052795	-0.020752	0.01358	-0.048676	0.26428	0.041046	0.005493	0.080719	0.037842	-0.002899	-0.1294	-0.011749	0.36179	0.036011	-0.029449	-1.1105	-1.6052	0.048523	0.14404	-0.35751	0.63782	0.15518	-0.010529	-0.10849	-0.19257	-0.085907	0.8519	-1.104	-0.001221	-0.022888
57.97	0.013733	0.071106	0.041809	-0.007324	0.016632	-0.058594	0.28503	0.024109	0.011902	0.08316	0.038605	0.000458	-0.096893	-0.14755	0.41763	0.029907	-0.086212	-1.1926	-0.63355	-0.066223	0.014801	-0.34119	0.71396	0.26169	-0.00412	-0.21011	-0.17929	-0.013428	0.37643	-0.43625	0.000153	-0.020599
57.971	0.013428	0.062103	0.04776	0.023041	0.015869	-0.024414	0.28595	0.019684	0.036469	0.075989	0.041046	0.010223	-0.079803	-0.24887	0.33279	0.026093	-0.075684	-1.1752	-0.59784	-0.026398	0.070038	-0.34683	0.82092	0.26047	-0.011902	-0.31937	-0.10117	-0.080109	0.29205	0.51224	0.001678	-0.016327
57.972	0.011749	0.080719	0.06424	-0.016937	0.020294	-0.001678	0.35065	0.030518	0.021362	0.071259	0.045776	0.010529	-0.093842	-0.10483	0.11948	0.021057	-0.0177	-1.2483	-0.40344	-0.039978	0.1506	0.071411	0.78888	0.087738	-0.003052	-0.14358	0.20569	0.067902	0.14297	1.434	0.000305	-0.007324
57.973	0.001221	0.058746	0.057526	-0.040741	0.002594	-0.022888	0.45761	0.010834	0.019226	0.065765	-0.1033	0.023651	-0.074615	-0.092163	0.034027	0.022888	0.023193	-1.4482	-0.53284	-0.048981	-0.005188	0.30029	0.8493	0.032654	0.018158	0.025787	0.52338	0.068054	-0.21713	1.5041	0.003357	-0.004272
57.974	0.002747	0.1152	0.04776	-0.05249	0.009308	-0.065155	0.5603	0.015564	0.014496	0.032349	-0.062714	0.019226	-0.015717	-0.10162	0.14252	0.03006	0.056458	-1.31	-0.73456	-0.10986	-0.30212	-0.045776	0.85892	-0.08316	-0.000763	0.18036	0.42541	0.042419	-0.43274	1.179	-0.003052	0.000763
57.975	-0.009155	0.18616	0.071564	-0.027466	0.010376	-0.11673	0.51071	0.021515	0.005798	0.03006	0.10773	0.00412	-0.023193	-0.040131	0.25421	0.039215	0.067139	-1.1412	-0.44479	-0.11276	-0.48386	-0.31372	0.89477	-0.080261	0.002441	0.12482	0.062561	0.04715	-0.092163	1.0143	-0.000305	0.001526
57.976	-0.019684	0.21927	0.10513	0.023193	0.030823	-0.19379	0.52246	0.02121	-0.000153	0.058289	0.16312	-0.013885	-0.07843	0.027008	0.14206	0.035858	0.024872	-1.1696	-0.34515	-0.091095	0.06424	-0.3363	0.82184	-0.028992	-0.008392	0.12558	-0.21194	0.068665	0.17258	0.49149	0.00061	-0.000916
57.977	-0.021515	0.27771	0.053558	0.028076	0.041046	-0.15732	0.58136	0.016632	0.018005	0.062714	0.10574	-0.029297	-0.093384	0.009155	0.018921	0.020294	-0.034943	-1.2633	0.037079	-0.12665	0.21591	-0.12299	0.74295	-0.064697	-0.046082	0.12726	-0.25055	-0.4863	0.45731	0.2359	-0.003357	-0.014038
57.978	-0.022888	0.36209	0.038147	-0.006561	0.040741	-0.097656	0.6221	0.022278	0.012512	0.037384	0.032654	-0.027618	0.019531	0.04837	-0.042419	0.020905	-0.074005	-1.2236	0.48126	-0.088654	-0.054321	-0.038605	0.74066	0.032196	-0.098114	0.11398	-0.44647	-0.6398	0.45853	-0.028992	-0.001373	-0.016479
57.979	-0.019836	0.47287	0.010071	-0.024567	0.032959	-0.040741	0.70389	0.026398	0.007935	0.043335	-0.14191	-0.0177	0.055084	0.070343	-0.1593	0.011597	-0.081635	-1.0625	-0.098877	0.11749	-0.039673	0.052948	0.60028	0.061646	-0.12039	0.1387	-0.63095	-0.35263	0.052032	-0.32257	-0.003662	-0.019226
57.98	-0.015411	0.63065	0.029144	-0.011292	0.017395	-0.040588	0.71426	0.026855	0.005341	0.050201	-0.16281	-0.015411	-0.049286	0.046234	0.030518	0.010681	-0.057831	-0.90408	-0.15747	0.14511	0.12512	0.037842	0.077667	0.082855	-0.10422	0.084991	-0.063782	0.75745	-0.42465	0.12177	0.002899	-0.027771
57.981	-0.012665	0.78247	0.019073	-0.015259	0.024261	-0.03891	0.5693	0.011902	-0.001678	0.078735	-0.003052	0.000305	-0.16434	0.056152	0.027771	0.008698	-0.026245	-0.85037	0.32791	0.12512	0.15778	-0.35568	-0.082397	0.093079	-0.010071	0.024872	0.54672	0.37918	-0.81528	0.37186	0.00351	-0.025787
